<svg version="1.1" id="Layer_1" xmlns="http://www.w3.org/2000/svg" xmlns:xlink="http://www.w3.org/1999/xlink" x="0px" y="0px"
	 width="100%" viewBox="0 0 739 738" enable-background="new 0 0 739 738" xml:space="preserve">
<path fill="#000001" opacity="1.000000" stroke="none" 
	d="
M351.219788,738.673523 
	C235.739700,739.000000 120.479378,738.977295 5.219214,739.103333 
	C1.537285,739.107361 0.905313,738.251892 0.908811,734.724426 
	C1.019806,622.795410 1.000000,510.866364 1.000000,398.468658 
	C4.651256,396.940613 4.767570,399.785522 4.969812,401.928436 
	C6.675335,419.999634 9.687325,437.833191 13.844790,455.508118 
	C18.777821,476.480316 25.728319,496.759430 34.261047,516.495056 
	C45.744022,543.054443 60.391705,567.819153 77.936211,590.804382 
	C102.251015,622.659424 130.741302,650.198059 164.021973,672.656189 
	C169.269852,676.197449 172.323135,676.307373 174.521484,673.215698 
	C176.842422,669.951538 175.499054,666.608948 170.286469,663.151428 
	C146.560883,647.414001 125.328476,628.682800 106.324684,607.635925 
	C69.132866,566.445618 42.880547,519.023071 28.109980,465.426025 
	C21.109221,440.022797 17.191200,414.171753 15.657231,387.791718 
	C13.013038,342.318817 19.220839,298.159973 33.562340,255.148163 
	C47.231888,214.151581 67.978371,176.920715 95.714294,143.694809 
	C124.707146,108.963150 158.611282,80.140160 198.351364,58.269375 
	C234.599045,38.320606 273.161133,25.425602 313.970886,18.775885 
	C339.925598,14.546711 366.060974,13.751208 392.127930,15.174919 
	C434.326721,17.479706 474.976166,27.202948 513.730103,44.399410 
	C546.539612,58.958134 576.439392,77.979317 603.410156,101.705833 
	C642.097290,135.739288 672.515564,175.916199 693.797852,222.859833 
	C707.550232,253.194290 716.749023,284.895386 721.210999,317.958801 
	C723.705688,336.444824 725.466736,354.987488 725.046021,373.632324 
	C724.288818,407.187683 719.766479,440.195770 710.072021,472.448608 
	C700.122742,505.549316 685.646912,536.502319 666.618591,565.293762 
	C647.309631,594.509888 623.899780,620.086548 597.123718,642.661072 
	C575.621155,660.789734 552.220032,675.964905 527.050293,688.391663 
	C495.037201,704.197021 461.304535,714.584290 426.027863,720.210266 
	C400.412170,724.295593 374.640472,724.926331 348.865265,723.875061 
	C327.758209,723.014221 306.882965,719.562683 286.305786,714.598938 
	C284.044861,714.053528 281.806213,713.308167 279.460388,713.278076 
	C276.629364,713.241760 273.957428,713.828613 273.274994,717.094421 
	C272.625427,720.203247 274.402557,722.152466 277.087830,723.340088 
	C281.082672,725.106934 285.419922,725.676147 289.628326,726.593018 
	C308.320984,730.665283 327.143066,733.941528 346.294556,734.966370 
	C348.579498,735.088684 351.166077,735.034302 351.219788,738.673523 
z"/>
<path fill="#5D00F7" opacity="1.000000" stroke="none" 
	d="
M351.468658,739.000000 
	C350.084625,737.324890 350.086975,737.284729 348.049011,737.165649 
	C324.372406,735.781982 301.119568,731.740601 278.131653,726.036133 
	C272.753143,724.701477 270.261353,721.674622 270.714539,717.082520 
	C271.193176,712.232361 275.739319,709.721802 281.873199,711.270874 
	C290.912231,713.553589 299.989197,715.604004 309.185547,717.156982 
	C371.764130,727.724731 433.448730,723.754150 492.533386,700.574646 
	C614.281494,652.811646 690.855347,564.546082 716.344116,436.113617 
	C749.676147,268.160583 657.805298,103.210526 499.399780,40.768028 
	C448.330414,20.636784 395.289215,13.370473 340.653839,17.843561 
	C205.358963,28.920364 88.682358,116.064697 40.355267,242.406799 
	C18.371241,299.879944 11.572081,359.314484 20.867861,420.163544 
	C36.419502,521.962708 86.803459,602.327148 171.310654,661.247314 
	C172.267151,661.914185 173.237381,662.563232 174.170547,663.261536 
	C178.313965,666.362366 179.252350,670.615784 176.676514,674.539124 
	C174.146652,678.392456 169.831543,679.138489 165.291931,676.155273 
	C155.401367,669.655701 145.904755,662.597351 136.815292,655.021118 
	C67.379890,597.145630 24.156235,523.814209 7.352145,434.981750 
	C5.186209,423.531830 3.650371,411.969910 2.872227,400.324341 
	C2.797274,399.202637 2.980972,397.922852 1.331618,397.634216 
	C1.000000,379.312439 1.000000,360.624878 1.000000,341.468658 
	C3.178030,336.964844 2.119486,332.486053 2.308543,328.300232 
	C3.254617,307.353455 8.196768,287.180817 13.621444,267.123230 
	C19.455860,245.550583 27.350105,224.661469 37.350685,204.682800 
	C48.921539,181.567108 62.788475,159.866898 78.850571,139.537949 
	C91.909401,123.010048 106.551651,107.973923 121.963898,93.778717 
	C141.830780,75.480644 163.699997,59.749779 187.274902,46.397701 
	C226.253754,24.321302 268.060120,10.557541 312.109711,3.298570 
	C319.787079,2.033411 327.661926,2.428351 335.701355,1.242944 
	C358.354218,1.000000 380.708466,1.000000 403.531342,1.000000 
	C407.340576,3.127059 411.196777,2.175794 414.703766,2.317088 
	C434.840424,3.128379 454.155853,8.118693 473.383667,13.419963 
	C509.787720,23.456854 543.592224,39.289730 575.075989,60.105160 
	C601.483765,77.564613 624.833130,98.618553 646.159241,121.863365 
	C667.981201,145.648605 686.118225,172.138062 700.701355,200.944733 
	C717.503357,234.134476 728.694275,269.199921 735.193848,305.836853 
	C738.085083,322.133942 738.991211,338.505005 739.012329,354.985443 
	C739.014221,356.465363 738.749146,357.995361 739.756470,359.698486 
	C740.000000,366.021149 740.000000,372.042297 740.000000,378.531738 
	C738.546387,380.531738 739.002197,382.456512 739.020874,384.236664 
	C739.566101,436.197784 726.144592,484.778564 703.872253,531.318909 
	C690.500000,559.261658 673.868896,585.090088 653.704407,608.491577 
	C624.273376,642.647278 590.402588,671.561951 550.837891,693.651855 
	C512.177856,715.236694 470.795990,728.585999 427.307251,735.841370 
	C417.635010,737.455017 407.808929,737.670654 398.014923,738.013855 
	C395.875641,738.088806 393.682312,737.585693 391.303436,738.756104 
	C377.979095,739.000000 364.958221,739.000000 351.468658,739.000000 
z"/>
<path fill="#000001" opacity="1.000000" stroke="none" 
	d="
M391.468658,739.000000 
	C390.776581,736.011108 393.172302,737.229614 394.357269,737.153381 
	C409.836731,736.158020 425.169006,734.088135 440.389374,731.138977 
	C587.720459,702.591187 702.362854,588.613342 731.654114,441.418274 
	C735.428833,422.449402 737.639221,403.260529 738.161255,383.897064 
	C738.212036,382.013977 737.469482,379.851624 739.657776,378.646515 
	C740.000000,497.593414 739.977905,616.186829 740.103210,734.780151 
	C740.107056,738.460632 739.253906,739.094727 735.724915,739.091309 
	C621.129089,738.980652 506.533203,739.000000 391.468658,739.000000 
z"/>
<path fill="#000001" opacity="1.000000" stroke="none" 
	d="
M740.000000,359.531342 
	C737.018066,360.158478 738.255737,357.776031 738.222168,356.604980 
	C737.873779,344.435730 736.762451,332.341492 735.088867,320.288788 
	C725.054016,248.023071 697.088989,183.760742 649.044678,128.609360 
	C592.690796,63.919273 522.318054,23.403774 437.995636,7.353485 
	C427.872986,5.426697 417.576935,4.413080 407.364807,2.951382 
	C405.948334,2.748638 404.284332,3.240633 403.647278,1.330456 
	C514.596985,1.000000 625.193909,1.024353 735.790771,0.894475 
	C739.500366,0.890118 740.091980,1.785448 740.088806,5.285640 
	C739.981750,123.211250 740.000000,241.136978 740.000000,359.531342 
z"/>
<path fill="#000001" opacity="1.000000" stroke="none" 
	d="
M335.531342,1.000000 
	C336.141022,3.868844 333.829681,2.777687 332.588867,2.907960 
	C313.687897,4.892440 294.981842,8.053877 276.664154,13.083653 
	C161.880264,44.601643 80.433533,115.319298 31.531425,223.398117 
	C15.169147,259.560486 6.351558,298.016327 2.933782,337.626404 
	C2.810968,339.049744 3.235609,340.702545 1.336794,341.352997 
	C1.000000,229.072601 1.023503,117.145180 0.896338,5.217933 
	C0.892151,1.532654 1.752656,0.905492 5.276766,0.909051 
	C115.205322,1.020089 225.134018,1.000000 335.531342,1.000000 
z"/>
<path fill="#5D00F7" opacity="1.000000" stroke="none" 
	d="
M628.969421,272.986511 
	C686.200867,430.619812 595.265747,600.004944 434.205444,638.093323 
	C286.635925,672.991394 140.603683,585.310181 102.662903,438.638184 
	C85.366348,371.772888 92.581459,306.858673 123.211899,244.752869 
	C126.005234,239.089142 129.219162,237.640472 133.813721,239.814575 
	C138.659470,242.107529 139.910950,246.357666 137.037109,252.000549 
	C123.453377,278.672699 114.665550,306.863831 111.360474,336.570343 
	C103.094063,410.870239 121.409500,477.799957 169.347610,535.556274 
	C210.700867,585.379150 263.629364,616.642090 327.766937,626.578552 
	C408.556671,639.094910 481.015350,618.714233 542.937744,565.234070 
	C594.736023,520.497681 623.814941,463.044678 630.070862,394.813202 
	C641.267395,272.696045 568.620361,160.449860 451.991425,122.306519 
	C371.175171,95.875664 294.251892,107.021706 222.964249,154.065994 
	C221.852234,154.799835 220.773743,155.586563 219.642395,156.288635 
	C214.901138,159.230850 209.988403,158.667221 207.712234,154.944473 
	C205.324142,151.038696 206.612900,146.511292 211.104431,143.392944 
	C235.067642,126.755867 260.720520,113.218620 288.874786,105.574684 
	C398.188507,75.895729 493.340851,100.614052 572.812805,181.850342 
	C598.147400,207.747330 616.141052,238.673370 628.969421,272.986511 
z"/>
<path fill="#5F00FA" opacity="1.000000" stroke="none" 
	d="
M352.030060,294.893219 
	C393.875458,284.639709 436.534210,311.690277 445.070404,353.556183 
	C453.870483,396.716156 425.750427,438.103149 382.849548,445.132690 
	C335.009064,452.971649 292.135376,415.988708 293.156799,367.763611 
	C293.887512,333.265137 316.818024,304.712646 352.030060,294.893219 
z"/>
<path fill="#6BD1E9" opacity="1.000000" stroke="none" 
	d="
M536.627075,338.602570 
	C535.653564,334.115479 534.677734,330.069794 533.934570,325.981781 
	C533.013062,320.912140 535.180298,316.892303 539.088928,316.031403 
	C543.633484,315.030426 547.546082,317.822388 548.866150,323.008331 
	C575.393616,427.220215 508.087982,532.197998 402.592041,551.154541 
	C301.517914,569.316528 204.419830,500.708893 187.889679,399.449951 
	C172.462692,304.948700 231.600250,214.239166 324.610016,190.670685 
	C372.375793,178.566971 418.066620,184.906174 461.169525,209.005539 
	C462.765686,209.897980 464.364227,210.815750 465.838684,211.890442 
	C469.808777,214.784225 470.750580,219.584656 468.173553,223.292374 
	C465.764526,226.758362 462.040283,227.367493 457.610535,224.758194 
	C436.846497,212.527328 414.630890,204.537918 390.633514,201.771118 
	C344.993744,196.509048 303.432617,207.328262 267.297729,235.594574 
	C221.300903,271.575348 199.225189,319.465576 201.138962,377.888977 
	C203.553223,451.590820 259.843201,517.918640 331.864746,534.238220 
	C422.608521,554.800232 510.401184,499.085541 533.377869,412.832977 
	C539.869507,388.463867 540.551331,363.851959 536.627075,338.602570 
z"/>
<path fill="#6CD3EA" opacity="1.000000" stroke="none" 
	d="
M532.657349,253.356689 
	C539.714478,261.647552 541.168335,270.573608 536.476196,279.992493 
	C532.251038,288.473816 524.857605,292.811554 515.477356,292.639923 
	C505.897034,292.464600 498.723053,287.731964 494.653839,278.900360 
	C490.127930,269.077637 493.276733,257.227356 501.932587,250.797714 
	C511.326324,243.819962 522.778870,244.684708 532.657349,253.356689 
z"/>
<path fill="#6CD2EA" opacity="1.000000" stroke="none" 
	d="
M171.842773,214.058548 
	C161.898895,217.771362 153.360992,215.912842 146.246353,208.744553 
	C139.676605,202.125214 138.028473,193.967163 140.954514,185.205536 
	C144.038239,175.971695 150.806778,170.840637 160.417984,169.539749 
	C170.561523,168.166840 180.824295,174.470810 184.592102,184.282822 
	C188.395981,194.188828 184.833008,205.827911 176.133514,211.754578 
	C174.902328,212.593338 173.524063,213.216171 171.842773,214.058548 
z"/>
<path fill="#6CD3EB" opacity="1.000000" stroke="none" 
	d="
M208.697327,682.660156 
	C217.558777,675.810669 227.394165,674.911560 235.958206,679.946594 
	C244.247910,684.820312 248.449478,693.852661 247.051315,703.794006 
	C245.809586,712.622925 238.877136,720.153748 229.815140,722.517700 
	C219.942398,725.093201 209.252121,720.583069 204.071808,711.656799 
	C198.563370,702.165100 200.175735,691.533875 208.697327,682.660156 
z"/>
</svg>